# xmcd
#
# Track frame offsets:
#	150
#	18471
#	31112
#	50644
#	68998
#	88404
#	107423
#	121348
#	132496
#	145210
#	160762
#	174964
#	194325
#
# Disc length: 2766 seconds
#
# Revision: 0
# Processed by: cddbd v1.5.2PL0 Copyright (c) Steve Scherf et al.
# Submitted via: audiograbber 1.83.01
#
DISCID=b20acc0d
DTITLE=Crystal Plamondon - On A Song And A Prayer
DYEAR=2009
DGENRE=Cajun Zydeco
TTITLE0=Forever More
TTITLE1=Like A Hurricane
TTITLE2=Saving The Best For Last
TTITLE3=So Close
TTITLE4=His Sweetheart Of The Rodeo
TTITLE5=Homemade Love
TTITLE6=Je T'aime
TTITLE7=Must Be Love
TTITLE8=Jesus and Alan Jackson
TTITLE9=Constament
TTITLE10=Mon Ti Pit
TTITLE11=Sa Belle Du Rodeo
TTITLE12=On A Song and A Prayer
EXTD=
EXTT0=
EXTT1=
EXTT2=
EXTT3=
EXTT4=
EXTT5=
EXTT6=
EXTT7=
EXTT8=
EXTT9=
EXTT10=
EXTT11=
EXTT12=
PLAYORDER=
